/* XPM */
static char *_a7bf88611ba4e65f108afaa64422801hVb5bWmca6b6RGcp[] = {
/* columns rows colors chars-per-pixel */
"16 35 5 1 ",
"  c None",
". c #181923",
"X c #292D41",
"o c #800000",
"O c #6F687A",
/* pixels */
"    XX  X X     ",
"   XOOX XXOXXX  ",
"    XOOXOOOXOOX ",
"  XXXOOOOOOOOXX ",
" XOOOOOOOOOOOX  ",
"XOOOOOOOOOOOOX  ",
" XXOOOOOOOOOOOX ",
"  XOOOOOOOOOOOOX",
" XOOOOOOOOOOXXX ",
"XOOXOOOOOOOOOX  ",
" XXXOOOOOOXXOX  ",
"  XOOOXOOXXXX   ",
"   XXXXXOXXXX   ",
"   XXXXXXX..X   ",
"  ..XXXXXooo..  ",
"  .XXoooooooo.  ",
" .XXoooooooooo. ",
" .XXoooooooooo. ",
" .XXooooooXooo. ",
" .XXooooooXooo. ",
" .XXooooooXooo. ",
" .XXooooooXooo. ",
" .XXooooooXooo. ",
" .XXooooooXooo. ",
" .XXoooooooXoo. ",
" .XXoooooooXoo. ",
" .XXoooooooXoo. ",
"  .ooooooooXoo. ",
"  .ooooooooXoo. ",
"  .ooooooooo..  ",
"  .ooooooooo..  ",
"  .ooooooooo..  ",
"  .ooooooooo..  ",
"   .ooooooo...  ",
"    .........   "
};
