/* XPM */
static char *d32b2231d1654917badc049f31d15959wlUYcVp9EUYb6aUt[] = {
/* columns rows colors chars-per-pixel */
"16 35 5 1 ",
"  c None",
". c #181923",
"X c #292D41",
"o c #800000",
"O c #6F687A",
/* pixels */
"     X X  XX    ",
"  XXXOXX XOOX   ",
" XOOXOOOXOOX    ",
" XXOOOOOOOOXXX  ",
"  XOOOOOOOOOOOX ",
"  XOOOOOOOOOOOOX",
" XOOOOOOOOOOOXX ",
"XOOOOOOOOOOOOX  ",
" XXXOOOOOOOOOOX ",
"  XOOOOOOOOOXOOX",
"  XOXXOOOOOOXXX ",
"   XXXXOOXOOOX  ",
"   XXXXOXXXXX   ",
"   X..XXXXXXX   ",
"  ..oooXXXXX..  ",
"  .ooooooooXX.  ",
" .ooooooooooXX. ",
" .ooooooooooXX. ",
" .oooXooooooXX. ",
" .oooXooooooXX. ",
" .oooXooooooXX. ",
" .oooXooooooXX. ",
" .oooXooooooXX. ",
" .oooXooooooXX. ",
" .ooXoooooooXX. ",
" .ooXoooooooXX. ",
" .ooXoooooooXX. ",
" .ooXoooooooo.  ",
" .ooXoooooooo.  ",
"  ..ooooooooo.  ",
"  ..ooooooooo.  ",
"  ..ooooooooo.  ",
"  ..ooooooooo.  ",
"  ...ooooooo.   ",
"   .........    "
};
