/* XPM */
static char *_6dbf1ef04f041f2b3410ec32ec4bf90OC8rg61V5OnFlb1U[] = {
/* columns rows colors chars-per-pixel */
"16 35 5 1 ",
"  c None",
". c #181923",
"X c #292D41",
"o c #800000",
"O c #6F687A",
/* pixels */
"     X X  XX    ",
"  XXXOXX XOOX   ",
" XOOXOOOXOOX    ",
" XXOOOOOOOOXXX  ",
"  XOOOOOOOOOOOX ",
"  XOOOOOOOOOOOOX",
" XOOOOOOOOOOOXX ",
"XOOOOOOOOOOOOX  ",
" XXXOOOOOOOOOOX ",
"  XOOOOOOOOOXOOX",
"  XOXXOOOOOOXXX ",
"   XXXXOOXOOOX  ",
"   X..XOXXXXX   ",
"  ..ooXXXXXX..  ",
"  .ooooXXXXXX.  ",
" .oooooooooXXX. ",
" .ooooooooooXX. ",
" .oooXooooooXX. ",
" .oooXooooooXX. ",
" .oooXooooooXX. ",
" .oooXooooooXX. ",
" .oooXooooooXX. ",
" .oooXooooooXX. ",
" .ooXoooooooXX. ",
" .ooXoooooooXX. ",
" .ooXoooooooXX. ",
" .ooXoooooooX.  ",
" .ooXoooooooo.  ",
"  ..ooooooooo.  ",
"  ..ooooooooo.  ",
"  ..ooooooooo.  ",
"  ..ooooooooo.  ",
"  ..ooooooooo.  ",
"  ...ooooooo.   ",
"   .........    "
};
