/* XPM */
static char *a865bf7d371548e69a9a36248c826d55EfwuyumOgU8OHjNO[] = {
/* columns rows colors chars-per-pixel */
"16 36 8 1 ",
"  c None",
". c #181923",
"X c #292D41",
"o c #800000",
"O c #6F687A",
"+ c #A58D89",
"@ c #B59E90",
"# c #D8D4AA",
/* pixels */
"     X          ",
"    XOXX        ",
" XXXOOXOX XX    ",
"XOOXOOOOOXOOX   ",
" XOOOOOOOOOX    ",
"  XO@@@@OOOXXXX ",
"  XO@@@@@OOOOOOX",
"  XO#@@#@OOOOOOX",
" XOO#@@#@@OOOXX ",
"XOOO@@@@@@OOXX  ",
" XXOOOOOOOXOOX  ",
"   XX++OOOXXOX  ",
"    XOOOOXXXX   ",
"    XOOOOXXX    ",
"    XOOOXXXX..  ",
"   .XOOXXXXooo. ",
"   .XOOXXooooo. ",
"   .XXOXooooooo.",
"   .XoX.ooooooo.",
"  .XXoo.oooXooo.",
"  .XXoo.oooXooo.",
"  .XXoo.oooXooo.",
" .XoXoo.oooXooo.",
" .XoXoo.oooXooo.",
" .XoXoo.oooXooo.",
" .XXXoo.oooXooo.",
"  ..Xoo..ooXooo.",
"   .Xoo..ooXooo.",
"   .Xoo..ooXooo.",
"   .Xoo..oooX.. ",
"   .Xo...ooooo. ",
"   .Xo...ooooo. ",
"   .X....ooooo. ",
"    ......oo..  ",
"      .......   ",
"          ..    "
};
