/* XPM */
static char *_a51c2c8fe64429d8c000354d7d711edqoyzefUibkF6qzpp[] = {
/* columns rows colors chars-per-pixel */
"16 35 8 1 ",
"  c None",
". c #181923",
"X c #292D41",
"o c #800000",
"O c #6F687A",
"+ c #A58D89",
"@ c #B59E90",
"# c #D8D4AA",
/* pixels */
"          X     ",
"        XXOX    ",
"    XX XOXOOXXX ",
"   XOOXOOOOOXOOX",
"    XOOOOOOOOOX ",
" XXXXOOO@@@@OX  ",
"XOOOOOO@@@@@OX  ",
"XOOOOOO@#@@#OX  ",
" XXOOO@@#@@#OOX ",
"  XXOO@@@@@@OOOX",
"  XOOXOOOOOOOXX ",
"  XOXXOOO++XX   ",
"   XXXXOOOOX    ",
"  ..XXXOOOOX    ",
" .ooXXXXOOOX.   ",
" .oooXXXXOOX.   ",
".ooooooXXOOX.   ",
".oooooooXOXX.   ",
".oooXooo.XoXX.  ",
".oooXooo.ooXX.  ",
".oooXooo.ooXX.  ",
".oooXooo.ooXoX. ",
".oooXooo.ooXoX. ",
".oooXooo.ooXoX. ",
".oooXooo.ooXXX. ",
".oooXoo..ooX..  ",
".oooXoo..ooX.   ",
".oooXoo..ooX.   ",
" ..Xooo..ooX.   ",
" .ooooo...oX.   ",
" .ooooo...oX.   ",
" .ooooo....X.   ",
"  ..oo......    ",
"   .......      ",
"    ..          "
};
