/* XPM */
static char *_33bc8deaf3a49e48331d481119b026bUqj7C1DzLx3UZ4NT[] = {
/* columns rows colors chars-per-pixel */
"32 32 5 1 ",
"  c None",
". c #0F0F12",
"X c #260402",
"o c #400612",
"O c #6E2727",
/* pixels */
"                                ",
"                                ",
"                                ",
"                                ",
"                                ",
"                                ",
"                                ",
"                                ",
"                                ",
"                                ",
"                                ",
"                                ",
"            ... ...             ",
"           .ooo.ooo.            ",
"           .oooooOo.            ",
"           .XoooooX.            ",
"            .XXooX.             ",
"             .XXX.              ",
"              .X.               ",
"               .                ",
"                                ",
"                                ",
"                                ",
"                                ",
"                                ",
"                                ",
"                                ",
"                                ",
"                                ",
"                                ",
"                                ",
"                                "
};
