/* XPM */
static char *cb1dfdc76aee4747b57942218fad8731S6JS9jlU4RZ5YgY1[] = {
/* columns rows colors chars-per-pixel */
"32 32 9 1 ",
"  c None",
". c #181923",
"X c #292D41",
"o c #38405D",
"O c #4C546D",
"+ c #6F687A",
"@ c #8B7983",
"# c #A58D89",
"$ c #B59E90",
/* pixels */
"              ###               ",
"            ########            ",
"        #######$$$$$##          ",
"       ##########$$$$##         ",
"      ####$$########$$####      ",
"    ####$$$#####@###########    ",
"  #####$$$###@@#@@############  ",
" ######$####@#@@@@@@#####$$#####",
" ######$###@@@#@@@@#@###$$###@#+",
" +++######@#@@@@@@@#######@@@++O",
".O++++#####@#@@@@@######@@@+++OX",
".OOO+++################@@+++OOXX",
".OOOOO++###############@++OOOXX.",
".OOOOO++++##########+#+++OOXXX..",
".O+#OOO++++##++###+++OOOO.XX....",
".OO++##OOO+++++++++OOXXXX.......",
".OOO++##OOOOOOO++OOXXX.X........",
".OOOO+++##OOOOOOXXXX..X.........",
".OoOOO++++##OOOooXX.............",
".OOooOOOO++###OOoX..............",
".OOOooOOOOO+++OOoXX.............",
".OOOOooooOOOOOOooX..............",
".OOOOoOoooooOOOoXX..............",
".oOOOOooOOooooOoXX..............",
"..oOOOOOoOoOOOOoXX..............",
"  ..oOOOOOOOOOOoXX............  ",
"    ..oOOOOOOOOXXX..........    ",
"      ..oOOoOOOoXX........      ",
"        ..ooooOooX......        ",
"          ...oooXX....          ",
"            ....XX..            ",
"              ....              "
};
