/* XPM */
static char *e736d49828f6464c8b5a9923ef9dda23i72kUCgRVgH72M2L[] = {
/* columns rows colors chars-per-pixel */
"32 32 7 1 ",
"  c None",
". c #0F0F12",
"X c #461317",
"o c #6E2727",
"O c #AE2334",
"+ c #E83B3B",
"@ c white",
/* pixels */
"                                ",
"                                ",
"                                ",
"                                ",
"                                ",
"                                ",
"                                ",
"                                ",
"                                ",
"                                ",
"                                ",
"                                ",
"            ... ...             ",
"           .ooO.+@O.            ",
"           .oO+X++O.            ",
"           .XoOOOOO.            ",
"            .oXOOO.             ",
"             .XXo.              ",
"              .X.               ",
"               .                ",
"                                ",
"                                ",
"                                ",
"                                ",
"                                ",
"                                ",
"                                ",
"                                ",
"                                ",
"                                ",
"                                ",
"                                "
};
