/* XPM */
static char *_d00acf33190468ef1a77e1336ecafcaAHWYZI3jIyrqj1cG[] = {
/* columns rows colors chars-per-pixel */
"32 32 15 1 ",
"  c None",
". c #0F0F12",
"X c #311F23",
"o c #3E292D",
"O c #461317",
"+ c #543027",
"@ c #6E2727",
"# c #7D362C",
"$ c #7A4537",
"% c #AE2334",
"& c #BB2D3F",
"* c #E83B3B",
"= c #D59369",
"- c #FFDFBA",
"; c white",
/* pixels */
"                                ",
"                                ",
"                                ",
"                                ",
"                                ",
"                                ",
"                                ",
"              #....             ",
"             #-=$$+.            ",
"            #-=...++.           ",
"            #=.**;.+.           ",
"            .$.***.+.           ",
"         ....=.&&&.+....        ",
"        .+++$$.&**.+++oo.       ",
"       .++.....%%%.....oo.      ",
"       .+.%%%%%%%%%%%%%.o.      ",
"       .+.%%%%%%%%%%%%%.+.      ",
"       .++.....%%%.....+o.      ",
"        .+++XX.O@@..++++.       ",
"         ...+X.%%%.++...        ",
"            .+.O@O.o.           ",
"            .X.OOO.o.           ",
"            .++...oX.           ",
"             .+++oX.            ",
"              .....             ",
"                                ",
"                                ",
"                                ",
"                                ",
"                                ",
"                                ",
"                                "
};
