/* XPM */
static char *_de1e642d78c47b8a831756e948376df5sN6Oty6stMai1uS[] = {
/* columns rows colors chars-per-pixel */
"16 36 8 1 ",
"  c None",
". c #181923",
"X c #292D41",
"o c #38405D",
"O c #6F687A",
"+ c #A58D89",
"@ c #B59E90",
"# c #D8D4AA",
/* pixels */
"          X     ",
"        XXOX    ",
"    XX XOXOOXXX ",
"   XOOXOOOOOXOOX",
"    XOOOOOOOOOX ",
" XXXXOOO@@@@OX  ",
"XOOOOOO@@@@@OX  ",
"XOOOOOO@#@@#OX  ",
" XXOOO@@#@@#OOX ",
"  XXOO@@@@@@OOOX",
"  XOOXOOOOOOOXX ",
"  XOXXOOO++XX   ",
"   XXXXOOOOX    ",
"    XXXOOOOX    ",
"    XXXXOOOX    ",
"  ...XXXXOOX    ",
" .oooXXXXOOX.   ",
" .oooooXXOXX.   ",
".oooooooXXoX.   ",
".ooooooo.ooX.   ",
".oooXooo.ooXX.  ",
".oooXooo.ooXX.  ",
".oooXooo.ooXX.  ",
".oooXooo.ooXoX. ",
".oooXooo.ooXoX. ",
".oooXooo.ooXoX. ",
".oooXoo..ooXXX. ",
".oooXoo..ooX..  ",
".oooXoo..ooX.   ",
".oooXoo..ooX.   ",
" ..Xooo...oX.   ",
" .ooooo...oX.   ",
" .ooooo....X.   ",
"  ..oo......    ",
"   .......      ",
"    ..          "
};
