/* XPM */
static char *_dacd2a499df43a4d5c82871ebf1cf04SpBorwihmQmQoiuT[] = {
/* columns rows colors chars-per-pixel */
"16 36 8 1 ",
"  c None",
". c #181923",
"X c #292D41",
"o c #38405D",
"O c #6F687A",
"+ c #A58D89",
"@ c #B59E90",
"# c #D8D4AA",
/* pixels */
"     X          ",
"    XOXX        ",
" XXXOOXOX XX    ",
"XOOXOOOOOXOOX   ",
" XOOOOOOOOOX    ",
"  XO@@@@OOOXXXX ",
"  XO@@@@@OOOOOOX",
"  XO#@@#@OOOOOOX",
" XOO#@@#@@OOOXX ",
"XOOO@@@@@@OOXX  ",
" XXOOOOOOOXOOX  ",
"   XX++OOOXXOX  ",
"    XOOOOXXXX   ",
"    XOOOOXXX    ",
"    XOOOXXXX    ",
"    XOOXXXX...  ",
"   .XOOXXXXooo. ",
"   .XXOXXooooo. ",
"   .XoXXooooooo.",
"   .Xoo.ooooooo.",
"  .XXoo.oooXooo.",
"  .XXoo.oooXooo.",
"  .XXoo.oooXooo.",
" .XoXoo.oooXooo.",
" .XoXoo.oooXooo.",
" .XoXoo.oooXooo.",
" .XXXoo..ooXooo.",
"  ..Xoo..ooXooo.",
"   .Xoo..ooXooo.",
"   .Xoo..ooXooo.",
"   .Xo...oooX.. ",
"   .Xo...ooooo. ",
"   .X....ooooo. ",
"    ......oo..  ",
"      .......   ",
"          ..    "
};
