/* XPM */
static char *b8d14c55f74b41e783d843c6d891803eHo3Uxb0ylU91L5JO[] = {
/* columns rows colors chars-per-pixel */
"16 35 5 1 ",
"  c None",
". c #181923",
"X c #292D41",
"o c #38405D",
"O c #6F687A",
/* pixels */
"    XX  X X     ",
"   XOOX XXOXXX  ",
"    XOOXOOOXOOX ",
"  XXXOOOOOOOOXX ",
" XOOOOOOOOOOOX  ",
"XOOOOOOOOOOOOX  ",
" XXOOOOOOOOOOOX ",
"  XOOOOOOOOOOOOX",
" XOOOOOOOOOOXXX ",
"XOOXOOOOOOOOOX  ",
" XXXOOOOOOXXOX  ",
"  XOOOXOOXXXX   ",
"   XXXXXOX..X   ",
"  ..XXXXXXoo..  ",
"  .XXXXXXoooo.  ",
" .XXXooooooooo. ",
" .XXoooooooooo. ",
" .XXooooooXooo. ",
" .XXooooooXooo. ",
" .XXooooooXooo. ",
" .XXooooooXooo. ",
" .XXooooooXooo. ",
" .XXooooooXooo. ",
" .XXoooooooXoo. ",
" .XXoooooooXoo. ",
" .XXoooooooXoo. ",
"  .XoooooooXoo. ",
"  .ooooooooXoo. ",
"  .ooooooooo..  ",
"  .ooooooooo..  ",
"  .ooooooooo..  ",
"  .ooooooooo..  ",
"  .ooooooooo..  ",
"   .ooooooo...  ",
"    .........   "
};
