/* XPM */
static char *_2beca33aed94497f2e6579abc9260deNEkLnoS1z4wjzB10[] = {
/* columns rows colors chars-per-pixel */
"23 67 4 1 ",
"  c None",
". c #181923",
"X c #292D41",
"o c #4C546D",
/* pixels */
"           XX          ",
"           XX          ",
"           X.          ",
"           X.          ",
"           X.          ",
"           X.          ",
"           X.          ",
"          XX.          ",
"          XX.          ",
"          X..          ",
"          X..          ",
"         XX..          ",
"         X...          ",
"         X..           ",
"         XX.           ",
"         XX.           ",
"         XX.           ",
"         XX.           ",
"  ...   XXX.           ",
"   .... XXX.           ",
"     ...XX..           ",
"      ..X...           ",
"       ..X..           ",
"        ....           ",
"        X...           ",
"        X...           ",
"        X...           ",
"        XX...          ",
"        oX...          ",
"        oX...     .....",
"        o....  .....   ",
"        XX.......      ",
"        oXX....        ",
"        oo....         ",
"        oX....         ",
"         Xo...         ",
"         Xo...         ",
"         Xo...  ..     ",
"         XXX.....      ",
"         oXX....       ",
"         oX....        ",
"         XX....        ",
"         Xo...         ",
"         XX...         ",
"         oXX..         ",
"         oXo..         ",
"  ........Xo..         ",
"..............         ",
"        ......         ",
"         oX...         ",
"         oX....        ",
"         oXo...        ",
"         XXXo..        ",
"         XX.X..        ",
"        oXXXX..        ",
"        oX.XX..        ",
"        oX..X..        ",
"        oX.....        ",
"        XX..X...       ",
"       XXX..X...       ",
"       XX...X...       ",
"       X....X...       ",
"      Xo.o..X....      ",
"      o..X. X.....     ",
"       . X.  X. ..     ",
"         ..  X..       ",
"              X.       "
};
