/* XPM */
static char *fb0dd50188dd4f78cfc20eab947cd2d1vex67MXpWR47835U[] = {
/* columns rows colors chars-per-pixel */
"32 32 11 1 ",
"  c None",
". c #181923",
"X c #292D41",
"o c #38405D",
"O c #4C546D",
"+ c #6F687A",
"@ c #8B7983",
"# c #A58D89",
"$ c #B59E90",
"% c #BEB097",
"& c #D8D4AA",
/* pixels */
"              $$OO              ",
"            $$$$%#OO            ",
"          $%$$$$####OO          ",
"        $%$$$$$###$$##OO        ",
"      $$OO&####%#$######OO      ",
"    $$$$%#OO&##%##$$$$OO%%OO    ",
"  $%$$$$####OO%#####OO&&####OO  ",
"$%$$$$$###$$##OO##OO&$###$$###OO",
"+%&####%#$######OO%$##$$$#####oo",
"O+@%&##%##$$$$OO%%OO%#######oooX",
"+++++%%#####OO&&####OO####ooXXXX",
"++++O+%%##OO&$###$$###OO&oXXXX.X",
"+++O+O++oo%$##$$$#####ooooXXX.X.",
"O+O+OOOOo.+%%#######oooXoX.X....",
"O+O+O+OOo.O+%%####ooXXXX.XX.X...",
"++OOO+OOo.OOO+%%&oXXXX.X.X.X....",
"..ooOOOoo.+++OOOooXXX.X..XX.....",
".+..ooOoo.+OOO+OoX.X......X.....",
".+++..ooo.++OO+oOXX.X...X.......",
".+O++O..o.OOO++OoX.X......X.....",
".++O+++O..oOO++ooXX.............",
".+O+OO+++O..ooOOo.X.............",
".++OO++O++OO..ooXX..............",
".OO+OO+++O++OO....X.............",
"..oOO+OO++OO++OoXX..............",
"  ..ooO+O+O+OOOoX.X...........  ",
"    ..oOOOOO+OooXX.X........    ",
"      ..oOOOOOooXXX.......      ",
"        ..ooOOoXX.X.....        ",
"          ..oooXXX....          ",
"            ..XXX...            ",
"              ....              "
};
